<?xml version="1.0" standalone="no"?>
<!DOCTYPE svg PUBLIC "-//W3C//DTD SVG 20010904//EN"
 "http://www.w3.org/TR/2001/REC-SVG-20010904/DTD/svg10.dtd">
<svg version="1.0" xmlns="http://www.w3.org/2000/svg"
 width="1200.000000pt" height="1200.000000pt" viewBox="0 0 1200.000000 1200.000000"
 preserveAspectRatio="xMidYMid meet">
<metadata>
Created by potrace 1.14, written by Peter Selinger 2001-2017
</metadata>
<g transform="translate(0.000000,1200.000000) scale(0.100000,-0.100000)"
fill="#000000" stroke="none">
<path d="M6400 5780 l0 -1460 205 0 205 0 0 665 0 665 543 -2 542 -3 3 -662 2
-663 205 0 205 0 0 1460 0 1460 -205 0 -205 0 0 -615 0 -615 -545 0 -545 0 0
615 0 615 -205 0 -205 0 0 -1460z"/>
<path d="M9122 7063 l3 -178 447 -3 448 -2 2 -1278 3 -1277 208 -3 207 -2 0
1280 0 1280 453 2 452 3 3 178 2 177 -1115 0 -1115 0 2 -177z"/>
<path d="M10150 3583 c-83 -8 -236 -46 -312 -77 -217 -88 -370 -225 -460 -411
-47 -99 -68 -193 -68 -310 0 -165 41 -287 138 -416 141 -185 356 -312 770
-454 339 -116 465 -183 546 -294 61 -82 79 -141 80 -251 0 -83 -3 -103 -27
-153 -33 -72 -122 -161 -199 -200 -95 -47 -198 -68 -333 -68 -207 0 -346 51
-465 171 -87 87 -132 180 -165 343 l-5 27 -217 0 -216 0 7 -67 c30 -298 199
-538 486 -691 207 -110 504 -163 747 -133 544 67 868 410 822 868 -19 187 -90
326 -241 469 -158 150 -331 238 -713 364 -195 64 -260 91 -347 141 -130 76
-208 178 -227 297 -42 263 170 473 495 490 315 16 531 -153 588 -458 l12 -65
218 -3 218 -2 -7 67 c-21 208 -92 366 -227 509 -214 225 -557 342 -898 307z"/>
<path d="M7818 2473 l-3 -1078 -28 -82 c-49 -146 -137 -251 -262 -312 -80 -40
-132 -50 -245 -51 -158 0 -260 39 -355 135 -88 88 -155 242 -155 354 l0 41
-220 0 c-169 0 -220 -3 -220 -12 1 -32 22 -159 36 -217 64 -255 232 -458 472
-568 175 -81 440 -114 638 -79 428 74 727 395 773 828 7 61 11 470 11 1108 l0
1010 -220 0 -219 0 -3 -1077z"/>
</g>
</svg>
